<svg width="144" height="21" viewBox="0 0 144 21" fill="none" xmlns="http://www.w3.org/2000/svg">
    <path d="M12.551.438h4.468v11.41c0 5.755-3.152 8.222-8.442 8.222-5.481 0-8.523-2.521-8.523-8.222V.438H4.53v11.62c0 2.896 1.508 4.239 4.002 4.239 2.494 0 4.02-1.343 4.02-4.239V.438zM31.829 5.66a4.567 4.567 0 0 0-4.139-2.248c-2.247 0-3.152.914-3.152 2.12 0 1.04.521 1.827 2.741 2.375l1.919.447c4.357.978 6.111 2.842 6.111 5.756 0 3.654-2.795 5.883-7.783 5.883-3.234 0-6.112-.85-7.784-3.7l2.933-2.165a5.318 5.318 0 0 0 4.85 2.74c2.413 0 3.564-.767 3.564-2.274 0-1.096-.63-1.781-2.85-2.302l-1.892-.448c-4.275-.986-5.892-3.179-5.892-6.002 0-3.28 2.658-5.774 7.208-5.774 3.316 0 5.783.96 7.235 3.59l-3.07 2.001zM53.15.438V4.22h-5.884v15.393H42.79V4.22h-5.865V.438H53.15zM70.5.137c5.618 0 8.414 2.786 8.414 9.885 0 7.098-2.933 9.893-8.414 9.893-5.482 0-8.36-2.822-8.36-9.893 0-7.072 2.906-9.885 8.36-9.885zm0 18.463c4.33 0 6.824-2.047 6.824-8.597 0-6.55-2.494-8.56-6.824-8.56s-6.788 2.01-6.788 8.579c0 6.568 2.485 8.578 6.788 8.578zM83.736 6.411h1.343l.165 2.924A4.97 4.97 0 0 1 90.04 6.11a3.892 3.892 0 0 1 4.138 3.654 5.033 5.033 0 0 1 5.098-3.654c2.905 0 4.358 1.69 4.358 5.088v8.414h-1.553V11.61c0-3.088-1.234-4.194-3.262-4.194-2.576 0-4.248 1.9-4.385 5.134v7.062h-1.489v-7.939c0-3.124-1.288-4.257-3.344-4.257-2.521 0-4.138 1.9-4.302 5.235v6.961h-1.563v-13.2zM110.158 6.41l.192 2.987a5.405 5.405 0 0 1 5.317-3.288c3.207 0 4.851 1.69 4.851 5.152v8.35h-1.535v-7.975c0-3.088-1.425-4.221-3.782-4.221-2.932 0-4.659 2.092-4.851 5.344v6.852h-1.535V6.41h1.343zM126.547 1.398a1.064 1.064 0 0 1 .864.294 1.053 1.053 0 0 1 .315.857 1.178 1.178 0 1 1-2.357 0 1.061 1.061 0 0 1 1.178-1.151zm.768 5.015v13.201h-1.535v-13.2h1.535zM136.064 1.523v.704h-2.284v5.746h-.785V2.227h-2.303v-.704h5.372zm.813 0h.914l2.476 5.591 2.521-5.59h.914v6.45h-.786v-5.09l-2.284 5.09h-.676l-2.302-5.025v5.024h-.786l.009-6.45z" fill="#231F20"/>
</svg>
